HIERARCHY
ROOT hip
{
  OFFSET 0 0 0
  CHANNELS 6 Xposition Yposition Zposition Zrotation Yrotation Xrotation
  JOINT abdomen
  {
    OFFSET 0 20.6881 -0.73152
    CHANNELS 3 Zrotation Xrotation Yrotation
    JOINT chest
    {
      OFFSET 0 11.7043 -0.48768
      CHANNELS 3 Zrotation Xrotation Yrotation
      JOINT neck
      {
        OFFSET 0 22.1894 -2.19456
        CHANNELS 3 Zrotation Xrotation Yrotation
        JOINT head
        {
          OFFSET -0.24384 7.07133 1.2192
          CHANNELS 3 Zrotation Xrotation Yrotation
          JOINT leftEye
          {
            OFFSET 4.14528 8.04674 8.04672
            CHANNELS 3 Zrotation Xrotation Yrotation
            End Site
            {
              OFFSET 1 0 0
            }
          }
          JOINT rightEye
          {
            OFFSET -3.6576 8.04674 8.04672
            CHANNELS 3 Zrotation Xrotation Yrotation
            End Site
            {
              OFFSET 1 0 0
            }
          }
        }
      }
      JOINT rCollar
      {
        OFFSET -2.68224 19.2634 -4.8768
        CHANNELS 3 Zrotation Xrotation Yrotation
        JOINT rShldr
        {
          OFFSET -8.77824 -1.95073 1.46304
          CHANNELS 3 Zrotation Xrotation Yrotation
          JOINT rForeArm
          {
            OFFSET -28.1742 -1.7115 0.48768
            CHANNELS 3 Zrotation Xrotation Yrotation
            JOINT rHand
            {
              OFFSET -22.5879 0.773209 7.07136
              CHANNELS 3 Zrotation Xrotation Yrotation
              JOINT rThumb1
              {
                OFFSET -1.2192 -0.487915 3.41376
                CHANNELS 3 Zrotation Xrotation Yrotation
                JOINT rThumb2
                {
                  OFFSET -3.37035 -0.52449 3.41376
                  CHANNELS 3 Zrotation Xrotation Yrotation
                  End Site
                  {
                    OFFSET -1.78271 -1.18214 1.43049
                  }
                }
              }
              JOINT rIndex1
              {
                OFFSET -7.75947 0.938293 5.60832
                CHANNELS 3 Zrotation Xrotation Yrotation
                JOINT rIndex2
                {
                  OFFSET -2.54057 -0.884171 1.56538
                  CHANNELS 3 Zrotation Xrotation Yrotation
                  End Site
                  {
                    OFFSET -1.62519 -0.234802 1.16502
                  }
                }
              }
              JOINT rMid1
              {
                OFFSET -8.24714 1.18213 3.41376
                CHANNELS 3 Zrotation Xrotation Yrotation
                JOINT rMid2
                {
                  OFFSET -3.10165 -0.590103 1.0647
                  CHANNELS 3 Zrotation Xrotation Yrotation
                  End Site
                  {
                    OFFSET -2.48547 -0.328903 0.83742
                  }
                }
              }
              JOINT rRing1
              {
                OFFSET -8.82822 0.546677 1.51678
                CHANNELS 3 Zrotation Xrotation Yrotation
                JOINT rRing2
                {
                  OFFSET -2.60934 -0.819778 -0.0198488
                  CHANNELS 3 Zrotation Xrotation Yrotation
                  End Site
                  {
                    OFFSET -2.33842 -0.294052 0.168128
                  }
                }
              }
              JOINT rPinky1
              {
                OFFSET -8.27202 -0.0477905 -0.4584
                CHANNELS 3 Zrotation Xrotation Yrotation
                JOINT rPinky2
                {
                  OFFSET -1.82734 -0.647385 -0.700984
                  CHANNELS 3 Zrotation Xrotation Yrotation
                  End Site
                  {
                    OFFSET -1.69225 -0.51767 -0.607171
                  }
                }
              }
            }
          }
        }
      }
      JOINT lCollar
      {
        OFFSET 2.68224 19.2634 -4.8768
        CHANNELS 3 Zrotation Xrotation Yrotation
        JOINT lShldr
        {
          OFFSET 8.77824 -1.95073 1.46304
          CHANNELS 3 Zrotation Xrotation Yrotation
          JOINT lForeArm
          {
            OFFSET 28.1742 -1.7115 0.48768
            CHANNELS 3 Zrotation Xrotation Yrotation
            JOINT lHand
            {
              OFFSET 22.5879 0.773209 7.07136
              CHANNELS 3 Zrotation Xrotation Yrotation
              JOINT lThumb1
              {
                OFFSET 1.2192 -0.487915 3.41376
                CHANNELS 3 Zrotation Xrotation Yrotation
                JOINT lThumb2
                {
                  OFFSET 3.37035 -0.52449 3.41376
                  CHANNELS 3 Zrotation Xrotation Yrotation
                  End Site
                  {
                    OFFSET 1.78271 -1.18214 1.43049
                  }
                }
              }
              JOINT lIndex1
              {
                OFFSET 7.75947 0.938293 5.60832
                CHANNELS 3 Zrotation Xrotation Yrotation
                JOINT lIndex2
                {
                  OFFSET 2.54057 -0.884171 1.56538
                  CHANNELS 3 Zrotation Xrotation Yrotation
                  End Site
                  {
                    OFFSET 1.62519 -0.234802 1.16502
                  }
                }
              }
              JOINT lMid1
              {
                OFFSET 8.24714 1.18213 3.41376
                CHANNELS 3 Zrotation Xrotation Yrotation
                JOINT lMid2
                {
                  OFFSET 3.10165 -0.590103 1.0647
                  CHANNELS 3 Zrotation Xrotation Yrotation
                  End Site
                  {
                    OFFSET 2.48547 -0.328903 0.83742
                  }
                }
              }
              JOINT lRing1
              {
                OFFSET 8.82822 0.546677 1.51678
                CHANNELS 3 Zrotation Xrotation Yrotation
                JOINT lRing2
                {
                  OFFSET 2.60934 -0.819778 -0.0198488
                  CHANNELS 3 Zrotation Xrotation Yrotation
                  End Site
                  {
                    OFFSET 2.33842 -0.294052 0.168128
                  }
                }
              }
              JOINT lPinky1
              {
                OFFSET 8.27202 -0.0477905 -0.4584
                CHANNELS 3 Zrotation Xrotation Yrotation
                JOINT lPinky2
                {
                  OFFSET 1.82734 -0.647385 -0.700984
                  CHANNELS 3 Zrotation Xrotation Yrotation
                  End Site
                  {
                    OFFSET 1.69225 -0.51767 -0.607171
                  }
                }
              }
            }
          }
        }
      }
    }
  }
  JOINT rButtock
  {
    OFFSET -8.77824 4.35084 1.2192
    CHANNELS 3 Zrotation Xrotation Yrotation
    JOINT rThigh
    {
      OFFSET 0 -1.70687 -2.19456
      CHANNELS 3 Zrotation Xrotation Yrotation
      JOINT rShin
      {
        OFFSET 0 -36.8199 0.73152
        CHANNELS 3 Zrotation Xrotation Yrotation
        JOINT rFoot
        {
          OFFSET 0.73152 -45.1104 -5.12064
          CHANNELS 3 Zrotation Xrotation Yrotation
          End Site
          {
            OFFSET -1.1221 -3.69964 12.103
          }
        }
      }
    }
  }
  JOINT lButtock
  {
    OFFSET 8.77824 4.35084 1.2192
    CHANNELS 3 Zrotation Xrotation Yrotation
    JOINT lThigh
    {
      OFFSET 0 -1.70687 -2.19456
      CHANNELS 3 Zrotation Xrotation Yrotation
      JOINT lShin
      {
        OFFSET 0 -36.8199 0.73152
        CHANNELS 3 Zrotation Xrotation Yrotation
        JOINT lFoot
        {
          OFFSET -0.73152 -45.1104 -5.12064
          CHANNELS 3 Zrotation Xrotation Yrotation
          End Site
          {
            OFFSET 1.1221 -3.69964 12.103
          }
        }
      }
    }
  }
}
MOTION
Frames:	8
Frame Time:	0.03333
0.0 0.0 0.0 0.0 0.0 0.0 0.0 0.0 0.0 0.0 0.0 0.0 0.0 0.0 0.0 0.0 0.0 0.0 0.0 0.0 0.0 0.0 0.0 0.0 0.0 0.0 0.0 0.0 0.0 0.0 0.0 0.0 0.0 0.0 0.0 0.0 0.0 0.0 0.0 0.0 0.0 0.0 0.0 0.0 0.0 0.0 0.0 0.0 0.0 0.0 0.0 0.0 0.0 0.0 0.0 0.0 0.0 0.0 0.0 0.0 0.0 0.0 0.0 0.0 0.0 0.0 0.0 0.0 0.0 0.0 0.0 0.0 0.0 0.0 0.0 0.0 0.0 0.0 0.0 0.0 0.0 0.0 0.0 0.0 0.0 0.0 0.0 0.0 0.0 0.0 0.0 0.0 0.0 0.0 0.0 0.0 0.0 0.0 0.0 0.0 0.0 0.0 0.0 0.0 0.0 0.0 0.0 0.0 0.0 0.0 0.0 0.0 0.0 0.0 0.0 0.0 0.0 0.0 0.0 0.0 0.0 0.0 0.0 0.0 0.0 0.0 0.0 0.0 0.0 0.0 0.0 0.0
0.2419 50.415 -0.24680000000000002 0.124324 -37.005415 -0.698711 0.674412 -0.980139 -145.466461 -10.386421 -5.250531 108.374408 11.647181 -17.441517 77.110117 -31.078785 -16.024948 -49.99388 133.50932 21.91023 -48.516604 -44.894188 -20.628579 47.54785 -84.920665 -37.552846 155.509159 24.907341 -46.089342 21.669174 -81.680194 -71.279851 -120.93456 -28.637319 57.004918 102.362377 13.902184 -20.73236 35.812685 51.280611 -6.820009 84.389518 -3.939607 72.793927 -130.649319 61.495438 47.318168 13.851446 118.969311 -51.083491 -122.273386 15.823974 56.209012 -126.063754 157.098584 -2.941158 -121.009041 100.478809 55.508144 -106.769726 -135.716876 11.227171 -81.605346 164.438399 29.946189 -45.733836 81.472275 -48.065627 -149.815746 -63.760681 -62.158083 -55.051439 161.360162 27.96396 120.096023 93.299826 -15.949029 90.096369 -36.326324 -51.388253 -112.749534 1.653592 8.431242 -143.853268 131.453973 -11.880404 7.055457 156.877116 -60.347948 118.253836 -60.136733 -78.58711 98.459846 25.172621 -6.369769 98.100102 48.294752 -64.805222 56.220201 178.693 9.186946 162.212582 31.267466 -23.692163 -8.807718 15.757661 -54.463894 -43.034467 2.645266 -27.141335 -1.822039 -3.370298 25.136582 -163.440867 -6.315746 -1.523686 -87.370871 64.878424 -20.526939 -98.819497 34.458441 11.878128 82.45602 -14.914179 31.969745 -37.394701 0.185179 5.478734 144.818745 -75.761647 -29.779129 90.526525
-0.051699999999999996 68.582 -0.6001000000000001 -176.360322 9.008873 -178.289715 1.808883 7.350923 0.0 0.47914 1.823198 -1.874886 -9.551633 4.409503 -7.048051 25.802169 -39.250432 10.498636 21.808848 3.693181 19.001004 -56.246824 -2.483416 4.644636 -167.355563 -69.259946 154.01006 -6.101737 17.415688 -39.882299 -162.643603 67.282218 -119.762456 -13.872817 -8.629331 -3.694552 -7.671855 -41.894214 -64.745531 129.332389 63.161302 -92.063884 -157.42879 -40.132322 104.235991 -174.979409 28.494664 55.010873 175.448729 45.40368 -156.146288 -148.901618 -73.927349 -152.011346 -86.966629 6.365087 -133.926025 145.980117 17.161479 -46.927659 -49.503337 -10.775429 -50.723676 -16.242809 73.07247 86.156274 63.915401 83.548079 -82.142401 99.899466 27.53329 -80.067385 -7.408693 -21.519456 96.311731 -174.25594 -11.774463 -146.179494 -13.381954 33.689753 -11.817871 15.235522 -68.430664 -13.002294 49.832345 -55.80172 -176.128634 16.934905 28.928545 -44.451157 -20.722982 -9.916588 -55.535044 -165.202472 6.577899 94.920008 -56.259369 48.497388 37.958468 73.557549 37.261645 -7.342369 15.921559 42.576765 -88.07419 158.221469 75.894311 72.997627 -2.677573 -13.287069 2.73881 -3.770697 1.325543 -0.0 17.380591 26.03799 90.805451 46.660683 37.056317 -118.328997 17.529785 -22.404136 -0.0 -0.921188 1.284775 158.135911 31.047879 -17.069948 98.297521 110.983045 2.495743 -133.137436
1.2449999999999999 66.2408 -1.409 -169.84605 14.542872 -175.082754 6.853071 14.680633 27.212277 -4.946235 -7.550705 -29.732391 -17.62773 20.90169 -83.258236 43.944802 20.80393 83.481263 -32.64494 -4.310852 14.647187 -59.088361 -24.1286 41.321654 16.050347 -69.432084 -1.940597 -160.638634 9.778309 -135.084326 -94.760842 2.768575 -14.266585 103.703198 -66.402569 89.686523 52.690411 -79.474436 14.546924 -154.774715 82.803581 164.221338 -57.33875 37.912757 32.022699 -167.281841 -57.907036 88.643214 -81.832666 -44.449959 -114.254467 18.137129 39.669477 22.408139 -135.095171 7.085127 -168.120703 -58.647119 -1.154243 -117.407093 36.79995 28.299587 -55.487462 -24.429309 -59.260896 34.886911 151.65989 3.583195 179.822241 82.098238 -59.128635 51.354973 109.557272 -53.597899 69.219881 -12.192968 -17.957049 4.071317 -73.544077 -17.881604 -27.112159 -167.913743 -1.140078 -132.761217 164.466147 -63.909178 -116.408 171.836008 31.579508 -115.172482 65.80595 21.930884 -54.268742 115.183935 -77.646567 -128.385114 92.537189 42.328678 -95.612761 74.233927 -51.757678 105.100223 165.382969 3.948893 -144.809986 161.828971 4.296009 -155.794079 -66.908308 54.380936 -47.396954 87.546628 2.562208 -134.942688 12.763724 -55.138379 122.281634 -23.526716 -59.984806 63.507747 0.614372 9.661771 -3.655813 58.261812 -41.505428 -36.5035 -70.522474 -4.977571 -110.767336 159.329962 22.475383 154.598003
3.5463 58.30030000000001 -2.5098 -164.474225 16.263971 -174.195672 14.18814 20.285688 -0.0 -4.858348 -14.220404 -6.401704 -6.933411 15.417093 -44.799841 28.99963 -4.813222 68.716869 -46.335971 8.951759 -20.731752 -46.243341 -16.091708 36.635274 -165.620364 -24.194137 154.329665 -163.237469 79.61787 116.10233 154.850207 -80.350137 28.67619 168.056436 3.767996 150.251197 174.752188 3.481856 99.258339 -79.47727 11.21197 4.801512 -139.423666 53.410631 97.252634 -93.472695 52.829376 64.278421 -11.641489 -2.988042 13.971989 -115.382093 -59.450771 -136.935908 -2.193625 -0.597508 3.887852 93.300233 -18.545495 145.758578 -6.973472 5.961326 -32.68263 -0.317941 -14.123872 20.271248 25.210933 -49.12663 41.488909 131.676349 67.812797 167.034746 170.270724 76.0997 -94.28511 -159.559847 -16.683739 -131.459814 -2.501608 -16.500041 -27.818134 -6.453923 -7.618449 57.117035 1.556622 -20.2686 -5.729011 75.847462 -75.589118 158.258563 -82.852839 -64.024068 -63.043114 48.725196 68.604702 -38.482768 159.728074 51.94063 -127.131326 0.070093 25.172868 0.024737 -168.574223 -22.76119 -168.943631 85.101535 -61.88338 71.630671 22.966582 -3.549908 -31.428619 -35.850275 -32.356934 91.118519 67.946292 11.322471 97.885914 -84.786615 29.935878 -162.639976 -12.579555 16.844201 -3.515111 99.406616 -41.792042 -175.228952 73.434977 -22.715612 -37.824555 3.015924 -44.341144 -69.607569
5.302 56.39189999999999 -3.4118999999999997 -164.307364 16.130123 -174.06723 14.091594 19.786329 -4.295205 -2.395871 -13.580692 -9.129239 2.070065 14.472451 -2.870262 4.155143 -19.5846 38.494072 -23.172319 12.030061 -54.401825 -26.782391 -3.05531 12.783343 -162.855824 -10.270203 140.176787 -44.534246 -12.83913 27.366525 3.585127 22.887652 -124.821765 171.189822 -6.892231 147.336758 -97.33775 33.269385 38.638541 -10.000847 6.253451 32.842659 -30.978624 4.751647 -17.973379 -67.910697 48.163473 49.133041 -2.973118 -39.166482 16.766257 6.618374 -12.122906 -49.363308 -134.245778 21.99176 162.621974 -49.664198 -28.048321 -155.690638 -27.922931 -35.330248 -22.571145 -160.089156 14.372991 -134.545962 -31.206504 81.402795 36.903184 -82.690959 -39.803379 -97.267783 18.397011 -2.223683 -38.623798 -8.618718 5.144769 5.870867 3.092494 -12.902389 -14.928705 -2.145737 20.05993 11.385317 -27.398581 -55.256434 -17.727715 -116.0681 77.900699 135.897592 2.721114 32.778991 -11.287042 89.148003 60.433334 -41.67139 173.409443 42.533497 -173.906579 62.157144 -28.199016 60.029431 18.187746 27.421976 -72.434472 88.921169 -5.361718 64.887856 -18.981919 45.14926 -83.881509 53.058206 -8.318452 12.361491 -62.917752 21.022796 -89.154121 -98.169802 44.165485 -160.528919 173.282766 76.512245 0.0 -136.64936 -2.970194 3.872383 64.73279 58.257089 26.26089 -148.727251 69.666113 55.405868
6.0339 57.3333 -3.8962999999999997 -165.657928 15.746079 -173.334936 11.676853 16.490967 -2.885174 -0.026916 -10.492461 -13.244307 -9.704789 26.181391 -84.553826 34.380999 7.699372 123.165069 44.990411 -22.267647 -50.838112 -9.778846 0.611196 -7.135624 19.479394 -31.178134 27.393675 -129.832226 -4.420023 -136.593768 161.461024 -56.363202 -107.049187 -13.51297 20.920204 2.678298 -170.402621 1.146456 74.631461 -154.363901 -29.078217 56.216432 167.070645 -75.316074 138.323207 -70.557349 50.412988 45.641122 -25.811938 -5.985178 9.986274 51.593835 -71.814677 -40.213157 19.219101 -1.253699 8.600189 -53.991659 24.146857 -11.829697 -146.350815 49.265934 -174.591776 -128.110875 -41.717699 -135.710248 -173.779333 69.522142 167.05218 32.478414 -11.862953 -34.551627 -171.844614 -39.056226 144.661886 4.384381 41.745974 4.469647 173.937075 -9.048797 -84.212875 20.213842 -0.504637 -24.052081 -90.609967 -69.738823 -58.971736 13.98916 81.518328 34.934663 67.97742 79.249093 -90.268542 -157.554369 -5.155819 172.104886 2.185067 33.626827 2.357372 -106.41196 -53.174629 -129.965701 -37.540794 -12.193312 -36.054247 -121.344988 37.801859 147.947811 -29.107675 17.683588 -66.553381 24.254182 -3.637237 90.632456 26.037262 47.447745 -97.818324 -14.202987 -29.858513 46.526502 -63.203301 19.973611 -58.318461 137.485487 7.106979 -97.685669 -70.968646 -26.726364 160.920638 -122.172676 37.380599 34.008002
5.9328 57.551300000000005 -4.3184000000000005 -166.661968 14.908317 -172.807806 9.255365 14.910429 -0.0 1.510253 -9.64634 -12.159294 5.901972 17.69827 53.396143 -25.512654 -10.214145 -22.803959 79.966274 -6.068801 -7.233988 -3.883446 0.655679 -19.15981 35.874938 -50.055162 29.237847 6.703453 -1.419149 -48.450823 -178.417579 81.249332 -88.947947 -11.21783 4.077162 -0.583766 -78.11818 26.202356 45.279256 -12.405916 16.620711 29.662347 55.646133 -78.059317 22.868886 169.994062 -3.72728 110.386919 -174.873789 6.228685 132.881352 16.802132 -66.30325 48.857195 29.218418 -3.134955 3.739149 -53.188698 28.59054 2.252747 -165.097344 -0.678693 -161.288693 -165.99584 -11.300889 -136.548791 159.598042 28.359359 178.938406 43.751651 31.185264 -5.564626 60.198582 -40.701082 119.820037 -103.170743 -62.045978 -86.090111 -14.816902 -10.091178 0.597447 -166.224555 1.352669 -90.429546 7.454539 -5.503926 1.53378 3.771686 -78.382797 84.15577 -24.776298 -12.622934 11.762688 147.69239 27.131926 -95.054081 150.294974 6.103191 170.246676 -104.64486 47.963719 74.341274 -38.469024 -53.105888 -12.017456 -170.178159 37.370151 -163.001013 -46.037959 19.135778 -56.247514 37.534361 5.965932 -93.934492 -49.537488 -42.086065 -100.83459 14.24254 31.172316 -157.466943 7.661675 -14.408268 10.337903 46.001776 -49.514574 180.0 63.261405 -50.228188 -179.373617 -11.662838 -41.188964 68.890712
